<?xml version="1.0" encoding="UTF-8"?>
<svg width="23px" height="12px" viewBox="0 0 23 12" version="1.1" xmlns="http://www.w3.org/2000/svg" xmlns:xlink="http://www.w3.org/1999/xlink">
    <!-- Generator: Sketch 43.2 (39069) - http://www.bohemiancoding.com/sketch -->
    <title>link</title>
    <desc>Created with Sketch.</desc>
    <defs></defs>
    <g id="Page-1" stroke="none" stroke-width="1" fill="none" fill-rule="evenodd">
        <g id="Artboard" transform="translate(-144.000000, -65.000000)" fill="#000000">
            <path d="M148.215,67.945 L145.845,75.025 C145.725,75.37 145.74,75.52 145.905,75.52 C146.235,75.52 146.94,74.785 147.63,74.005 C147.78,73.99 147.87,74.065 147.87,74.215 C147.48,74.965 146.535,76.21 145.29,76.21 C144.84,76.21 144.705,76 144.705,75.76 C144.705,75.52 144.78,75.25 145.035,74.485 L147.42,67.39 C147.78,66.34 147.63,66.19 147.405,66.085 L147.135,65.965 C147.06,65.905 147.06,65.77 147.135,65.725 C147.405,65.62 148.335,65.335 149.025,65.275 L149.1,65.365 C148.905,65.905 148.755,66.325 148.215,67.945 Z M148.47,75.67 L150.375,71.125 C150.45,70.96 150.45,70.84 150.345,70.84 C150.24,70.84 149.85,71.02 149.1,71.635 C148.965,71.62 148.875,71.5 148.905,71.38 C149.73,70.435 150.885,69.88 151.38,69.88 C151.485,69.88 151.56,69.97 151.62,70.03 C151.71,70.12 151.71,70.255 151.53,70.69 L149.745,74.95 C149.685,75.1 149.67,75.28 149.79,75.28 C150.045,75.28 150.84,74.755 151.35,74.17 C151.5,74.185 151.575,74.29 151.575,74.425 C151.35,74.86 149.805,76.21 148.77,76.21 C148.695,76.21 148.605,76.165 148.53,76.075 C148.44,75.97 148.395,75.835 148.47,75.67 Z M151.65,66.79 C151.065,66.79 150.855,67.405 150.855,67.735 C150.855,67.99 150.99,68.29 151.38,68.29 C151.83,68.29 152.16,67.825 152.16,67.36 C152.16,67.03 151.995,66.79 151.65,66.79 Z M155.535,70.495 C155.67,70.15 155.505,69.88 155.145,69.88 C154.395,69.88 153.48,70.495 152.91,71.275 C152.895,71.395 152.97,71.5 153.09,71.5 C153.585,71.065 154.11,70.75 154.455,70.75 C154.575,70.75 154.575,70.9 154.5,71.095 L152.76,75.82 C152.625,76.165 153.03,76.21 153.195,76.21 C153.33,76.21 153.39,76.165 153.465,76.03 C154.35,74.38 154.965,73.21 155.76,72.22 C156.585,71.185 157.47,70.435 157.83,70.435 C158.055,70.435 158.07,70.615 158.07,70.795 C158.07,71.095 157.875,71.62 157.755,71.89 C157.41,72.64 156.855,74.11 156.54,74.845 C156.225,75.595 156.18,75.7 156.18,75.835 C156.18,76.015 156.405,76.21 156.54,76.21 C157.365,76.21 158.55,75.49 159.12,74.53 C159.12,74.41 159.09,74.29 158.88,74.32 C158.445,74.845 157.725,75.34 157.47,75.34 C157.365,75.34 157.38,75.205 157.44,75.055 C157.485,74.935 158.565,72.49 158.835,71.74 C158.955,71.395 159.075,70.93 159.075,70.69 C159.075,70.195 158.82,69.88 158.235,69.88 C157.11,69.88 155.625,71.53 154.56,73.15 L154.515,73.12 L155.535,70.495 Z M159.975,75.82 L162.72,67.54 C163.065,66.49 163.08,66.295 162.825,66.175 L162.555,66.04 C162.465,65.98 162.45,65.89 162.525,65.815 C162.975,65.605 163.71,65.395 164.355,65.275 L164.445,65.35 C164.325,65.77 164.16,66.28 163.71,67.555 L162.165,71.995 L162.195,71.995 C162.63,71.41 163.125,70.9 163.725,70.45 C164.145,70.15 164.7,69.88 165.345,69.88 C166.215,69.88 166.425,70.39 166.425,70.705 C166.425,70.885 166.365,71.29 165.81,71.8 C165.105,72.445 164.37,72.955 163.41,73.12 C163.305,73.18 163.335,73.315 163.365,73.405 C163.485,73.84 163.755,74.5 163.92,74.815 C164.1,75.145 164.25,75.31 164.4,75.31 C164.595,75.31 164.88,75.115 165.3,74.605 C165.435,74.605 165.495,74.665 165.495,74.785 C164.97,75.91 164.22,76.21 163.98,76.21 C163.71,76.21 163.53,76.03 163.29,75.61 C163.11,75.28 162.735,74.41 162.6,74.005 C162.48,73.615 162.315,73.45 162.045,73.51 C161.745,73.585 161.67,73.66 161.49,74.11 L160.71,76.015 C160.65,76.15 160.59,76.21 160.455,76.21 C160.29,76.21 159.855,76.165 159.975,75.82 Z M165.27,70.915 C165.27,70.735 165.135,70.525 164.79,70.525 C164.4,70.525 163.845,70.855 163.335,71.29 C162.78,71.755 162.15,72.49 161.955,72.925 C161.895,73.075 161.91,73.18 162.105,73.15 C162.42,73.12 163.26,72.865 164.31,72.175 C164.94,71.755 165.27,71.23 165.27,70.915 Z" id="link"></path>
        </g>
    </g>
</svg>