<svg id="Layer_1" data-name="Layer 1" xmlns="http://www.w3.org/2000/svg" xmlns:xlink="http://www.w3.org/1999/xlink" viewBox="0 0 361.42 722.83"><defs><style>.cls-1{fill:none;}.cls-2{clip-path:url(#clip-path);}.cls-3{fill:#1d1d1b;}</style><clipPath id="clip-path"><rect class="cls-1" x="102.05" y="18.63" width="172.47" height="37.83"/></clipPath></defs><title>Untitled-1</title><g class="cls-2"><path class="cls-3" d="M274.52,41.25c0-2.94-1.33-4.56-4.84-5.61l-2.94-.89c-2.54-.77-3.1-1.29-3.1-2.78,0-1.85,1.37-3,3.59-3,2.54,0,3.79,1.13,3.91,3.51H274c-0.24-4.23-2.58-6.61-6.53-6.61a6.23,6.23,0,0,0-6.61,6.65c0,2.7,1.29,4.4,4,5.2l3.39,1c2.66,0.81,3.43,1.45,3.43,3,0,2.06-1.53,3.31-4.07,3.31-2.94,0-4.27-1.29-4.48-4.27h-2.82c0.28,5.16,2.62,7.38,7.1,7.38s7.18-2.7,7.18-6.94m-19.68-5.89h-9.6c0.16-3.79,2.18-6.33,5-6.33,2.62,0,4.32,1.85,4.64,6.33m3,2.82c-0.28-9-3-12.3-7.54-12.3-5,0-8.19,4.48-8.19,11.53,0,6.65,3,10.77,7.94,10.77,4,0,6.78-2.66,7.54-7.22h-2.9a4.58,4.58,0,0,1-4.56,4.11c-2.94,0-4.76-1.9-4.92-6.9h12.62Zm-19-19H235.4v3.87h3.47V19.24Zm-0.28,7.26h-2.9V47.59h2.9V26.49Zm-9.8,11.13c0,4.64-1.77,7.46-4.76,7.46s-4.6-3.06-4.6-8.35S221,29,224.15,29c3,0,4.64,3,4.64,8.59m2.78,8.23V26.49h-2.74V29.6c-1.57-2.74-2.94-3.71-5.28-3.71-4.27,0-7.14,4.27-7.14,10.65,0,7,3,11.65,7.54,11.65a5,5,0,0,0,4.72-2.94v0.85c0,5.73-1.57,7.42-5,7.42-2.22,0-3.35-1-3.87-3.35h-2.9c0.77,4.68,3,6.29,6.65,6.29,5.28,0,8-3.1,8-10.61M210.88,37c0,4.88-2,8-5,8s-5-3.15-5-8,1.94-8,5.08-8c2.94,0,4.92,3.18,4.92,8m3,0c0-6.49-3.27-11.13-7.9-11.13-4.88,0-8.15,4.48-8.15,11.13s3.31,11.13,8,11.13,8-4.56,8-11.13M194.47,18.63h-2.9v29h2.9v-29ZM185.16,37c0,4.88-2,8-5,8s-5-3.15-5-8,1.94-8,5.08-8c2.94,0,4.92,3.18,4.92,8m3,0c0-6.49-3.27-11.13-7.9-11.13-4.88,0-8.15,4.48-8.15,11.13s3.31,11.13,8,11.13,8-4.56,8-11.13M168.83,47.59V33.23c0-4.64-2.18-7.34-5.85-7.34-2.3,0-3.67.89-5.36,3.51V18.63h-2.9v29h2.9V36.09c0-4.48,1.78-7.06,4.92-7.06,2.38,0,3.39,1.41,3.39,4.76V47.59h2.9ZM151.89,29.44V26.49h-2.82V20.61h-2.9v5.89h-2.34v2.94h2.34V43.35c0,3.07,1.09,4.52,3.39,4.52,0.36,0,.28,0,2.3-0.28V44.8h-1c-1.29,0-1.77-.48-1.77-1.65V29.44h2.82ZM143,26.49h-3.23l-4.68,17.3-4.64-17.3h-3.27l6.41,21.66-0.73,2.18c-0.73,2.14-1.09,2.7-2.34,2.7a4.5,4.5,0,0,1-1.77-.36v3.23L129,56a2.76,2.76,0,0,0,1.17.24c3.47,0,4-.69,6.57-9ZM125.35,47.59V33c0-4.4-2.1-7.1-5.44-7.1-2.1,0-3.23.73-5.2,3.43-1.09-2.46-2.42-3.43-4.56-3.43-2.3,0-3.87,1.09-5.36,3.71V26.49H102V47.59h2.9V36.09c0-4.27,1.82-7.06,4.6-7.06,1.69,0,2.7,1.45,2.7,4v14.6h2.9V34.72c0-3.19,1.82-5.69,4.15-5.69,2.14,0,3.15,1.61,3.15,4.92V47.59h2.9Z"/></g></svg>