<?xml version="1.0" encoding="UTF-8"?>
<svg width="16px" height="16px" viewBox="0 0 16 16" version="1.1" xmlns="https://www.w3.org/2000/svg" xmlns:xlink="https://www.w3.org/1999/xlink">
    <!-- Generator: Sketch 49.3 (51167) - https://www.bohemiancoding.com/sketch -->
    <title>Group</title>
    <desc>Created with Sketch.</desc>
    <defs></defs>
    <g id="Page-1" stroke="none" stroke-width="1" fill="none" fill-rule="evenodd">
        <g id="Desktop-HD" transform="translate(-371.000000, -74.000000)" fill="#000000">
            <g id="Group" transform="translate(371.000000, 74.000000)">
                <path d="M16,9.08345325 C15.9059255,8.99864013 15.8064255,8.91648905 15.7015,8.837 C14.711495,8.08699625 13.412508,7.712 11.8045,7.712 C10.1724918,7.712 8.86150494,8.14999562 7.87149999,9.026 C6.88149504,9.90200438 6.38649999,11.0599928 6.38649999,12.5 C6.38649999,13.9400072 6.88149504,15.0979956 7.87149999,15.974 C7.88134344,15.98271 7.89121863,15.9913766 7.90112556,16 L5.03499997,16 L5.03499997,13.094 C5.03499997,11.1739904 4.73500297,9.80300411 4.13499997,8.981 C3.53499697,8.15899589 2.58700645,7.73600012 1.29099997,7.712 C0.824878372,7.712 0.39454514,7.75714052 -1.05471187e-15,7.84742182 L0,4.85638001 C1.26621218,5.1441278 2.52503775,5.288 3.77649999,5.288 C5.43250827,5.288 6.72849531,5.04500243 7.66449999,4.559 C8.60050467,4.07299757 9.06849999,3.32600504 9.06849999,2.318 C9.06849999,1.58599634 8.79250275,1.01600204 8.24049999,0.608 C7.88278069,0.343598778 7.47593068,0.140932822 7.0199445,-1.15585805e-11 L10.276242,0 C10.2859183,1.87082004 10.5858348,3.21047366 11.176,4.019 C11.776003,4.84100411 12.7239935,5.26399988 14.02,5.288 C14.7735277,5.288 15.4335273,5.17003137 16,4.93409307 L16,9.08345325 Z M16,13.274 L16,14.7136527 C15.9128558,14.7507419 15.840356,14.7808576 15.7825,14.804 C15.6624994,14.8520002 15.4735013,14.9179996 15.2155,15.002 C14.9574987,15.0860004 14.723501,15.1489998 14.5135,15.191 C14.3034989,15.2330002 14.0365016,15.2689999 13.7125,15.299 C13.3884984,15.3290002 13.0525017,15.344 12.7045,15.344 C11.504494,15.344 10.5955031,15.1820016 9.97749999,14.858 C9.3594969,14.5339984 8.97850071,14.0060037 8.83449999,13.274 L16,13.274 Z M-2.26728358e-15,9.63802652 C0.00432938214,9.63800884 0.00866270693,9.638 0.0129999744,9.638 C0.889004354,9.638 1.51899805,9.92599712 1.90299997,10.502 C2.28700189,11.0780029 2.47899997,12.0439932 2.47899997,13.4 L2.47899997,16 L0,16 L0,9.63802652 Z M12.8379081,0 L16,0 L16,3.27615412 C15.7787615,3.33338478 15.5447617,3.362 15.298,3.362 C14.4219956,3.362 13.7920019,3.07400288 13.408,2.498 C13.0628891,1.98033361 12.8728598,1.14767396 12.8379081,-1.38777878e-17 Z M0,2.8751208 L0,0.739072757 C0.407716403,0.927774149 0.865547935,1.05508256 1.37349999,1.121 C2.15950392,1.22300051 2.94549606,1.29199982 3.73149999,1.328 C4.51750392,1.36400018 5.18349726,1.45099931 5.72949999,1.589 C6.27550272,1.72700069 6.54849999,1.96999826 6.54849999,2.318 C6.54849999,2.69000186 6.30250245,2.94799928 5.81049999,3.092 C5.31849753,3.23600072 4.50250569,3.308 3.36249999,3.308 C2.17790259,3.308 1.05707541,3.16370801 -1.58228985e-12,2.8751208 Z M8.78049999,12.032 C8.86450041,11.1919958 9.14949756,10.5890018 9.63549999,10.223 C10.1215024,9.85699817 10.8444952,9.674 11.8045,9.674 C12.800505,9.674 13.5384976,9.84499829 14.0185,10.187 C14.4985024,10.5290017 14.7564998,11.095996 14.7925,11.888 L8.78049999,12.032 Z" id="Combined-Shape"></path>
            </g>
        </g>
    </g>
</svg>