<?xml version="1.0" encoding="UTF-8"?>
<svg width="16px" height="16px" viewBox="0 0 16 16" version="1.1" xmlns="http://www.w3.org/2000/svg" xmlns:xlink="http://www.w3.org/1999/xlink">
    <!-- Generator: Sketch 49.3 (51167) - http://www.bohemiancoding.com/sketch -->
    <title>Group</title>
    <desc>Created with Sketch.</desc>
    <defs></defs>
    <g id="Page-1" stroke="none" stroke-width="1" fill="none" fill-rule="evenodd">
        <g id="Desktop-HD" transform="translate(-233.000000, -74.000000)" fill="#000000">
            <g id="Group" transform="translate(233.000000, 74.000000)">
                <path d="M0,0 L16,0 L16,16 L0,16 L0,0 Z M7.99177801,1 C5.53613024,1 3.59027782,1.63688362 2.15416238,2.91066998 C0.718046948,4.18445633 0,5.8808827 0,8 C0,10.1191173 0.718046948,11.8155437 2.15416238,13.08933 C3.59027782,14.3631164 5.53613024,15 7.99177801,15 C8.98938491,15 9.92668284,14.884203 10.8036999,14.6526055 L10.8036999,12.7593052 C10.0143845,13.0488021 9.07708662,13.1935484 7.99177801,13.1935484 C6.15004218,13.1935484 4.68380127,12.7245704 3.59301131,11.7866005 C2.50222134,10.8486305 1.95683453,9.586443 1.95683453,8 C1.95683453,6.413557 2.50222134,5.15136945 3.59301131,4.2133995 C4.68380127,3.27542955 6.15004218,2.80645161 7.99177801,2.80645161 C9.82255112,2.80645161 11.288792,3.2349006 12.3905447,4.09181141 C13.4922974,4.94872223 14.0431655,6.0777432 14.0431655,7.47890819 C14.0431655,8.32423913 13.9006523,9.02481112 13.6156218,9.58064516 C13.3305912,10.1364792 12.8043889,10.651776 12.036999,11.1265509 L12.036999,7.44416873 C12.036999,5.20925268 10.9243003,4.09181141 8.69886948,4.09181141 C7.4820083,4.09181141 6.22131519,4.35235471 4.91675231,4.87344913 L4.91675231,6.50620347 C6.0678372,5.97352918 7.14764826,5.70719603 8.15621788,5.70719603 C8.8359061,5.70719603 9.3292208,5.82299305 9.63617677,6.05459057 C9.94313274,6.28618809 10.1020897,6.67989797 10.1130524,7.23573201 C10.0472761,7.24731189 9.9486132,7.25889159 9.81706064,7.27047146 C8.91811815,7.3515306 8.27406841,7.42100881 7.88489209,7.47890819 C7.49571577,7.53680757 6.92840386,7.65839444 6.18293936,7.84367246 C5.43747486,8.02895047 4.89756933,8.28659885 4.56320658,8.61662531 C4.22884382,8.94665177 4.06166495,9.34904643 4.06166495,9.82382134 C4.06166495,11.0744479 4.90029994,11.6997519 6.57759507,11.6997519 C8.73724958,11.6997519 10.003424,10.7733757 10.3761562,8.92059553 L10.5077081,8.92059553 L10.1459404,11.4739454 L13.303186,11.4739454 C14.2130912,11.1149693 14.8900286,10.582303 15.3340185,9.87593052 C15.7780084,9.16955809 16,8.37055864 16,7.47890819 C16,5.64928779 15.2682499,4.11208232 13.8047276,2.86724566 C12.3412054,1.622409 10.4035749,1 7.99177801,1 Z M7.27868852,10.5 C6.88524393,10.5 6.57377164,10.4304355 6.3442623,10.2913043 C6.11475295,10.1521732 6,9.96087078 6,9.7173913 C6,9.57826017 6.0409832,9.45072522 6.12295082,9.33478261 C6.20491844,9.21884 6.3415291,9.12318878 6.53278689,9.04782609 C6.72404467,8.97246339 6.90163852,8.90869591 7.06557377,8.85652174 C7.22950902,8.80434757 7.46721156,8.75797122 7.77868852,8.7173913 C8.09016549,8.67681139 8.33333246,8.64782617 8.50819672,8.63043478 C8.68306098,8.61304339 8.94808566,8.58985522 9.30327869,8.56086957 C9.65847172,8.53188391 9.89070984,8.51159426 10,8.5 C9.98907098,9.12609009 9.71311746,9.61594026 9.17213115,9.96956522 C8.63114484,10.3231902 8.00000361,10.5 7.27868852,10.5 Z" id="Combined-Shape"></path>
            </g>
        </g>
    </g>
</svg>